<?xml version="1.0" encoding="utf-8"?>
<!-- Generator: Adobe Illustrator 19.0.0, SVG Export Plug-In . SVG Version: 6.00 Build 0)  -->
<svg version="1.1" id="隔离模式" xmlns="http://www.w3.org/2000/svg" xmlns:xlink="http://www.w3.org/1999/xlink" x="0px"
	 y="0px" viewBox="3345.8 329.5 660.9 641" style="enable-background:new 3345.8 329.5 660.9 641;" xml:space="preserve">
<style type="text/css">
	.st0{opacity:0.3;}
	.st1{fill:none;stroke:#B1A4B3;stroke-width:2;stroke-miterlimit:10;}
	.st2{opacity:0.7;fill:#FFB900;enable-background:new    ;}
	.st3{fill:#EED8C7;}
	.st4{fill:none;stroke:#FFB900;stroke-linecap:round;stroke-miterlimit:10;stroke-dasharray:0,3;}
	.st5{fill:#FFB900;}
	.st6{font-family:'PingFangSC-Medium-GBpc-EUC-H';}
	.st7{font-size:12px;}
	.st8{fill:#FFFFFF;}
	.st9{font-family:'PingFangSC-Light-GBpc-EUC-H';}
	.st10{font-size:10px;}
	.st11{opacity:0.3;fill:#B1A4B3;}
	.st12{opacity:0.7;enable-background:new    ;}
</style>
<g>
	<g class="st0">
		<path class="st1" d="M3858.9,542c0,5.2-4.2,9.5-9.5,9.5c-5.2,0-9.5-4.2-9.5-9.5c0-1.6,0.4-3.1,1.1-4.5c1.1-2.1,3-3.7,5.3-4.5
			c0.9-0.3,2-0.5,3-0.5c1.1,0,2.1,0.2,3,0.5c2.3,0.8,4.2,2.4,5.4,4.5C3858.5,538.8,3858.9,540.4,3858.9,542z"/>
		<path class="st1" d="M3858.9,533c0,1.6-0.4,3.2-1.1,4.5c-1.1-2.1-3-3.7-5.4-4.5c-0.9-0.3-2-0.5-3-0.5s-2.1,0.2-3,0.5
			c-2.3,0.8-4.2,2.4-5.3,4.5c-0.7-1.3-1.1-2.9-1.1-4.5s0.4-3.1,1.1-4.5c1.6-3,4.8-5,8.4-5c3.6,0,6.8,2,8.4,5
			C3858.5,529.8,3858.9,531.4,3858.9,533z"/>
		<path class="st1" d="M3858.9,524c0,1.6-0.4,3.2-1.1,4.5c-1.6-3-4.8-5-8.4-5c-3.6,0-6.8,2-8.4,5c-0.7-1.3-1.1-2.9-1.1-4.5
			c0-5.2,4.2-9.5,9.5-9.5C3854.6,514.5,3858.9,518.8,3858.9,524z"/>
	</g>
	<circle class="st2" cx="3844.3" cy="704.3" r="3.2"/>
	<circle class="st2" cx="3854.5" cy="704.3" r="3.2"/>
	<circle class="st2" cx="3849.4" cy="696.7" r="3.2"/>
	<circle class="st3" cx="3844.3" cy="675.7" r="3.2"/>
	<circle class="st3" cx="3854.5" cy="675.7" r="3.2"/>
	<circle class="st3" cx="3849.4" cy="683.3" r="3.2"/>
	<path class="st4" d="M3676.7,410h182.5c22,0,40-18,40-40l0,0c0-22-18-40-40-40h-182.5"/>
	<path class="st4" d="M3676.7,410h-182.5c-22,0-40,18-40,40l0,0c0,22,18,40,40,40h182.5"/>
	<g>
		<path class="st4" d="M3676.7,570h182.5c22,0,40-18,40-40l0,0c0-22-18-40-40-40h-182.5"/>
		<path class="st4" d="M3676.7,570h-182.5c-22,0-40,18-40,40l0,0c0,22,18,40,40,40h182.5"/>
	</g>
	<path class="st4" d="M3676.7,730h182.5c22,0,40-18,40-40l0,0c0-22-18-40-40-40h-182.5"/>
	<path class="st4" d="M3676.7,730h-182.5c-22,0-40,18-40,40l0,0c0,22,18,40,40,40h182.5"/>
	<path class="st4" d="M3676.7,890h182.5c22,0,40-18,40-40l0,0c0-22-18-40-40-40h-182.5"/>
	<path class="st4" d="M3676.7,890h-182.5c-22,0-40,18-40,40l0,0c0,22,18,40,40,40h182.5"/>
	<line class="st4" x1="3676.7" y1="330" x2="3345.8" y2="330"/>
	<line class="st4" x1="4006.7" y1="970" x2="3675.7" y2="970"/>
	<text transform="matrix(1 0 0 1 3663.8831 358.8)" class="st5 st6 st7">2017.7</text>
	<text transform="matrix(1 0 0 1 3575.8677 374.9665)" class="st8 st9 st10">完成区块链核心框架： 多链并发成块技术、共识算法。</text>
	<text transform="matrix(1 0 0 1 3663.8831 436.9169)" class="st5 st6 st7">2017.10</text>
	<text transform="matrix(1 0 0 1 3575.8674 453.0834)"><tspan x="0" y="0" class="st8 st9 st10">完成区块链的Token生成机制、智能合约、数字钱包。</tspan><tspan x="0" y="14" class="st8 st9 st10">并开始构建基于Docker容器的资源调度原型。</tspan></text>
	<text transform="matrix(1 0 0 1 3663.8831 516.8168)" class="st5 st6 st7">2017.12</text>
	<text transform="matrix(1 0 0 1 3571.2007 532.9833)"><tspan x="0" y="0" class="st8 st9 st10">发布基础链服务。能够满足分布式计算服务的场景下的</tspan><tspan x="0" y="14" class="st8 st9 st10">Raft+DPoS共识算法、并行区块写入及智能合约。</tspan></text>
	<text transform="matrix(1 0 0 1 3663.8831 595.55)" class="st5 st6 st7">2018.5</text>
	<text transform="matrix(1 0 0 1 3571.2007 611.7166)"><tspan x="0" y="0" class="st8 st9 st10">DApp运行环境的Docker封装，任务分发，算力资源的调度，</tspan><tspan x="0" y="14" class="st8 st9 st10">工作量的自动核算。</tspan></text>
	<text transform="matrix(1 0 0 1 3663.8831 674.9501)" class="st5 st6 st7">2018.7</text>
	<text transform="matrix(1 0 0 1 3571.2007 691.1166)"><tspan x="0" y="0" class="st8 st9 st10">发布基于算力网络的CDN DApp。CDN运行环境的Docker</tspan><tspan x="0" y="14" class="st8 st9 st10">封装、算力资源调度、Token结算服务。</tspan></text>
	<text transform="matrix(1 0 0 1 3663.8831 752.3167)" class="st5 st6 st7">2018.10</text>
	<text transform="matrix(1 0 0 1 3571.2007 768.4832)"><tspan x="0" y="0" class="st8 st9 st10">AI应用上线。为AI模型离线计算提供低廉的空闲资源。</tspan><tspan x="0" y="14" class="st8 st9 st10">实现任务的自动分发、资源的合理匹配。</tspan></text>
	<text transform="matrix(1 0 0 1 3663.8831 831.2167)" class="st5 st6 st7">2018.12</text>
	<text transform="matrix(1 0 0 1 3571.2007 847.3832)"><tspan x="0" y="0" class="st8 st9 st10">计算节点的扩展。计算节点突破20,000个，共享资源的</tspan><tspan x="0" y="14" class="st8 st9 st10">用户突破30家。</tspan></text>
	<text transform="matrix(1 0 0 1 3663.8831 910.8167)" class="st5 st6 st7">2019</text>
	<text transform="matrix(1 0 0 1 3571.2007 926.9832)"><tspan x="0" y="0" class="st8 st9 st10">扩展物联网边缘计算节点，实现物联网系统去中心化访</tspan><tspan x="0" y="12" class="st8 st9 st10">问 ，利用边缘节点网络满足物联网安全、性能的需求。</tspan></text>
	<g>
		<path class="st11" d="M3867.5,360.8c-1.1-2-3.6-3-6.9-3c-0.7,0-1.4,0.1-2.1,0.1c-1.7-3.9-4.2-6.3-6.9-6.3c-2.8,0-5.2,2.5-6.9,6.3
			c-0.7-0.1-1.4-0.1-2.1-0.1l0,0c-3.2,0-5.7,1-6.9,3c-1.4,2.4-0.5,5.8,2,9.2c-2.5,3.4-3.4,6.8-2,9.2c1.1,2,3.6,3,6.9,3
			c0.7,0,1.4-0.1,2.1-0.1c1.7,3.9,4.1,6.3,6.9,6.3c2.8,0,5.2-2.5,6.9-6.3c0.7,0.1,1.4,0.1,2.1,0.1c3.2,0,5.7-1,6.9-3
			c1.4-2.4,0.5-5.8-2-9.2C3868,366.6,3868.9,363.2,3867.5,360.8z M3860.6,359.6L3860.6,359.6c1.4,0,2.6,0.2,3.5,0.6
			c0.8,0.4,1.5,0.9,1.8,1.5c0.4,0.7,0.5,1.6,0.3,2.6c-0.2,1.2-0.8,2.5-1.7,3.8c-0.1,0.1-0.2,0.3-0.3,0.4c-1.1-1.3-2.4-2.5-3.9-3.7
			c-0.3-1.9-0.7-3.7-1.2-5.2C3859.7,359.6,3860.2,359.6,3860.6,359.6z M3857.5,380.1c-1.2-0.2-2.3-0.5-3.6-0.9
			c0.8-0.4,1.5-0.8,2.3-1.2c0.8-0.4,1.5-0.9,2.2-1.4c0,0.1,0,0.2,0,0.2C3858.1,378,3857.8,379.1,3857.5,380.1z M3855.4,376.4
			c-1.2,0.7-2.5,1.3-3.7,1.8c-1.2-0.5-2.5-1.1-3.7-1.8c-1.2-0.7-2.4-1.5-3.5-2.3c-0.2-1.3-0.3-2.7-0.3-4.1c0-1.4,0.1-2.8,0.3-4.1
			c1.1-0.8,2.2-1.6,3.5-2.3c1.2-0.7,2.5-1.3,3.7-1.8c1.2,0.5,2.5,1.1,3.7,1.8c1.2,0.7,2.4,1.5,3.5,2.3c0.2,1.3,0.3,2.7,0.3,4.1
			c0,1.4-0.1,2.8-0.3,4.1C3857.7,375,3856.6,375.7,3855.4,376.4z M3844.9,376.8c0-0.1,0-0.2,0-0.2c0.7,0.5,1.4,1,2.2,1.4
			c0.8,0.4,1.5,0.8,2.3,1.2c-1.2,0.4-2.4,0.7-3.6,0.9C3845.5,379.1,3845.1,378,3844.9,376.8z M3842.6,372.6
			c-0.1-0.1-0.1-0.1-0.2-0.2c-0.9-0.8-1.7-1.6-2.4-2.5c0.7-0.8,1.5-1.7,2.4-2.5c0.1-0.1,0.1-0.1,0.2-0.2c-0.1,0.9-0.1,1.7-0.1,2.6
			C3842.5,370.9,3842.5,371.8,3842.6,372.6z M3845.8,359.9c1.2,0.2,2.3,0.5,3.6,0.9c-0.8,0.4-1.5,0.8-2.3,1.2
			c-0.8,0.4-1.5,0.9-2.2,1.4c0-0.1,0-0.2,0-0.3C3845.1,362,3845.4,360.9,3845.8,359.9z M3858.4,363.2c0,0.1,0,0.2,0,0.2
			c-0.7-0.5-1.4-1-2.2-1.4c-0.8-0.4-1.5-0.8-2.3-1.2c1.2-0.4,2.4-0.7,3.6-0.9C3857.8,360.9,3858.1,362,3858.4,363.2z M3860.7,367.4
			c0.1,0.1,0.1,0.1,0.2,0.2c0.9,0.8,1.7,1.6,2.4,2.5c-0.7,0.8-1.5,1.7-2.4,2.5c-0.1,0.1-0.1,0.1-0.2,0.2c0.1-0.9,0.1-1.7,0.1-2.6
			C3860.8,369.1,3860.7,368.2,3860.7,367.4z M3846.7,357.8c0.7-1.5,1.6-2.6,2.5-3.4c0.8-0.7,1.6-1,2.5-1c0.8,0,1.6,0.3,2.5,1
			c0.9,0.8,1.8,1.9,2.5,3.4c0.1,0.2,0.1,0.3,0.2,0.5c-1.6,0.3-3.4,0.8-5.2,1.6c-1.8-0.7-3.5-1.2-5.2-1.6
			C3846.6,358.1,3846.6,358,3846.7,357.8z M3838.6,368.2c-0.9-1.4-1.5-2.7-1.7-3.8c-0.2-1-0.1-1.9,0.3-2.6c0.4-0.6,1-1.1,1.8-1.5
			c0.9-0.4,2.1-0.6,3.5-0.6c0.5,0,0.9,0,1.4,0.1c-0.5,1.6-1,3.4-1.2,5.3c-1.5,1.2-2.8,2.4-3.9,3.7
			C3838.8,368.5,3838.7,368.3,3838.6,368.2z M3842.6,380.4c-1.4,0-2.6-0.2-3.5-0.6c-0.8-0.4-1.5-0.9-1.8-1.5
			c-0.4-0.7-0.5-1.6-0.3-2.6c0.2-1.2,0.8-2.5,1.7-3.8c0.1-0.1,0.2-0.3,0.3-0.4c1.1,1.3,2.4,2.5,3.9,3.7c0.3,1.9,0.7,3.7,1.2,5.2
			C3843.6,380.4,3843.1,380.4,3842.6,380.4z M3856.6,382.2c-0.7,1.5-1.6,2.6-2.5,3.4c-0.8,0.7-1.6,1-2.5,1c-0.8,0-1.6-0.3-2.5-1
			c-0.9-0.8-1.8-1.9-2.5-3.4c-0.1-0.2-0.1-0.3-0.2-0.5c1.6-0.3,3.4-0.8,5.2-1.6c1.8,0.7,3.5,1.2,5.2,1.6
			C3856.7,381.9,3856.7,382,3856.6,382.2z M3864.7,371.8c0.9,1.4,1.5,2.7,1.7,3.8c0.2,1,0.1,1.9-0.3,2.6c-0.4,0.6-1,1.1-1.8,1.5
			c-0.9,0.4-2.1,0.6-3.5,0.6c-0.5,0-0.9,0-1.4-0.1c0.5-1.6,1-3.4,1.2-5.3c1.5-1.2,2.8-2.4,3.9-3.7
			C3864.4,371.5,3864.6,371.7,3864.7,371.8z"/>
		<g>
			<path class="st11" d="M3850.5,369.1h-1.4v-1.4c0-0.5-0.4-0.9-0.9-0.9c-0.5,0-0.9,0.4-0.9,0.9v1.4h-1.4c-0.5,0-0.9,0.4-0.9,0.9
				c0,0.5,0.4,0.9,0.9,0.9h1.4v1.4c0,0.5,0.4,0.9,0.9,0.9s0.9-0.4,0.9-0.9v-1.4h1.4c0.5,0,0.9-0.4,0.9-0.9
				C3851.3,369.5,3851,369.2,3850.5,369.1z"/>
			<path class="st11" d="M3857.4,369.1h-3.4c-0.5,0-0.9,0.4-0.9,0.9c0,0.5,0.4,0.9,0.9,0.9h3.4c0.5,0,0.9-0.4,0.9-0.9
				C3858.2,369.5,3857.8,369.2,3857.4,369.1z"/>
		</g>
	</g>
	<path class="st11" d="M3535.8,458.1c1.7,0,2.9,0.6,4,1.7c1,1,1.7,2.5,1.7,4c0,3.1-2.5,5.6-5.6,5.6s-5.6-2.5-5.6-5.6
		c0-0.6,0.2-1.3,0.2-1.9l-6.1-3.6l-0.2,0.2c-1.7,1.5-3.6,2.3-5.6,2.3c-4.2,0-7.7-3.6-7.7-7.7s3.6-7.7,7.7-7.7c2.1,0,4.2,0.8,5.4,2.3
		l0.2,0.2l6.1-3.6c0-0.6-0.2-1.3-0.2-1.9c0-3.1,2.5-5.6,5.6-5.6s5.6,2.5,5.6,5.6s-2.5,5.6-5.6,5.6c-1.7,0-2.9-0.6-4-1.7l-6.1,3.6
		c0.4,1,0.6,2.1,0.6,3.1s-0.2,2.1-0.6,3.1l6.1,3.6C3532.7,458.7,3534.1,458.1,3535.8,458.1z M3537.9,461.4c-0.6-0.6-1.5-0.8-2.3-0.8
		s-1.7,0.4-2.3,0.8c-0.6,0.6-0.8,1.5-0.8,2.3c0,1.7,1.5,3.1,3.1,3.1c1.7,0,3.1-1.5,3.1-3.1C3538.9,462.9,3538.5,462.1,3537.9,461.4z
		 M3522.2,449.3c-1-0.8-2.3-1.5-3.8-1.5c-2.9,0-5.2,2.3-5.2,5.2s2.3,5.2,5.2,5.2c1.5,0,2.7-0.6,3.6-1.5c1.3-1,1.7-2.3,1.7-3.8
		S3523.3,450.4,3522.2,449.3z M3535.8,439.3c-1.7,0-3.1,1.5-3.1,3.1c0,0.6,0.2,1.3,0.4,1.7c0.2,0.2,0.2,0.4,0.4,0.4
		c0.6,0.6,1.5,0.8,2.3,0.8c1.7,0,3.1-1.5,3.1-3.1C3538.9,440.8,3537.5,439.3,3535.8,439.3z"/>
	<path class="st2" d="M3530,627.4c-7.3,0-13.2-5.9-13.2-13.1s5.9-13.1,13.2-13.1c0.6,0,1.2,0.5,1.2,1.2v10.8h10.9
		c0.6,0,1.2,0.5,1.2,1.2C3543.2,621.5,3537.2,627.4,3530,627.4z M3528.8,603.6c-5.5,0.6-9.7,5.2-9.7,10.7c0,5.9,4.9,10.8,10.9,10.8
		c5.6,0,10.3-4.2,10.8-9.7H3530c-0.6,0-1.2-0.5-1.2-1.2C3528.8,614.3,3528.8,603.6,3528.8,603.6z"/>
	<path class="st3" d="M3543.3,611.9h-10.1c-0.5,0-0.9-0.4-0.9-0.9v-10.1c0-0.5,0.4-0.9,0.9-0.9c6.1,0,10.9,5,10.9,11.1
		C3544.1,611.6,3543.7,611.9,3543.3,611.9z M3534.1,610.2h8.3c-0.4-4.4-3.9-8-8.3-8.4V610.2z"/>
	<g class="st12">
		<path class="st5" d="M3539.9,769.7l-6.6,4.1v7.9l6.8,4.1l6.6-4.1v-7.9L3539.9,769.7z M3544.7,780.4l-4.7,2.9l-4.9-2.7v-5.4
			l4.9-2.9l4.7,2.7V780.4z"/>
		<path class="st5" d="M3518,773.8v7.9l6.6,4.1l6.6-4.1v-7.9l-6.6-4.1L3518,773.8z M3529.4,780.6l-4.9,2.9l-4.9-2.9v-5.6l4.9-2.9
			l4.9,2.9V780.6z"/>
	</g>
	<path class="st3" d="M3539,760.2l-6.6-4.1l-6.6,4.1v7.9l6.6,4.1l6.8-4.1v-7.9H3539z M3537.3,767l-4.9,2.9l-4.9-2.9v-5.6l4.9-2.9
		l4.9,2.9V767z"/>
	<g>
		<path class="st3" d="M3863,836.6h-9.7c-0.8,0-1.5,0.7-1.5,1.5s0.7,1.5,1.5,1.5h6.3l-7.4,7.4c-0.6,0.6-0.6,1.5,0,2.1
			c0.6,0.6,1.5,0.6,2.1,0l7.5-7.5v6.4c0,0.8,0.7,1.5,1.5,1.5c0.8,0,1.5-0.7,1.5-1.5v-9.9C3864.7,837.2,3864,836.6,3863,836.6z"/>
		<path class="st2" d="M3850.8,852c0-0.4-0.2-0.8-0.4-1c-0.5-0.5-1.5-0.5-2,0l-7.5,7.5V852c0-0.8-0.7-1.5-1.5-1.5s-1.5,0.7-1.5,1.5
			v9.9c0,0.9,0.6,1.5,1.7,1.5h9.7c0.8,0,1.5-0.7,1.5-1.5s-0.7-1.5-1.5-1.5h-6.3l7.4-7.4C3850.7,852.7,3850.8,852.3,3850.8,852z"/>
	</g>
	<path class="st3" d="M3527.4,942.4h3.6c0.5,0,0.9-0.4,0.9-0.9v-7.9l-2.5-1.3l-2.9,1.7v7.5C3526.5,942,3526.9,942.4,3527.4,942.4z
		 M3519.8,942.4h3.6c0.5,0,0.9-0.4,0.9-0.9v-6.2l-5.4,3.2v3C3518.9,942,3519.3,942.4,3519.8,942.4z M3535,942.4h3.6
		c0.5,0,0.9-0.4,0.9-0.9v-11c0,0,0-0.1,0-0.1l-5.3,4.6l-0.1,0v6.7C3534.1,942,3534.5,942.4,3535,942.4z M3542.6,942.4h3.6
		c0.5,0,0.9-0.4,0.9-0.9v-13.3l-2.2-2.5l-3.2,2.8v13.1C3541.7,942,3542.1,942.4,3542.6,942.4z"/>
	<polygon class="st2" points="3516.8,933.8 3528.7,926.7 3529.4,926.3 3530.1,926.7 3533.7,928.7 3543.2,920.5 3541.9,918.9 
		3545.2,918.3 3548.6,917.6 3547.5,920.8 3546.4,924.1 3545.1,922.6 3534.8,931.5 3534,932.1 3533.2,931.6 3529.5,929.6 
		3518.2,936.2 	"/>
</g>
</svg>
